P2
128 96
255
164 165 164 164 163 162 164 164 164 163 163 163 163 163 164 163 164 164 166 165 164 165 167 167 168 168 168 168 169 169 170 170 169 169 169 170 169 170 170 170 171 171 171 173 173 172 172 173 172 172 173 173 173 173 175 175 175 174 175 174 172 172 171 173 173 172 171 173 174 172 172 173 172 173 173 173 173 174 174 174 175 174 174 174 174 174 175 175 175 175 174 176 176 178 178 178 179 180 180 180 181 181 182 183 183 181 184 186 184 184 185 186 187 186 186 188 188 190 192 193 194 195 194 194 195 195 195 197 
162 161 161 161 161 160 161 161 160 161 160 159 160 161 162 163 163 162 163 163 163 163 165 166 166 166 166 168 168 168 168 168 168 168 168 169 168 169 169 169 169 170 171 172 172 172 172 173 172 172 173 172 173 173 175 176 175 176 176 175 173 173 173 173 174 173 172 173 174 173 173 174 175 174 174 174 175 175 176 175 176 176 176 176 175 175 176 176 176 176 176 177 178 179 179 179 179 180 180 181 181 182 184 184 184 184 185 186 184 184 186 188 188 187 187 188 190 191 193 194 194 195 196 194 195 196 196 198
161 160 159 159 158 157 157 157 156 158 158 157 158 159 160 161 161 161 160 161 161 162 164 164 164 165 165 166 166 166 167 167 167 167 167 167 168 168 168 169 169 169 169 171 171 171 172 172 173 172 172 172 174 174 174 176 176 177 177 177 175 174 174 175 174 175 173 174 175 174 175 175 176 175 175 175 175 176 177 177 178 177 178 177 177 177 177 176 176 176 177 178 178 179 179 180 180 180 182 181 182 183 185 186 185 186 186 186 185 186 187 189 189 188 189 189 192 193 194 194 194 196 196 194 196 197 198 199
159 158 157 157 156 155 155 155 156 156 155 155 155 156 158 158 159 159 158 158 159 161 162 163 162 163 164 165 166 165 165 166 166 165 165 166 167 166 168 168 168 169 170 170 170 170 172 172 172 172 172 174 173 173 175 176 177 176 178 178 176 176 175 175 175 176 175 175 176 175 176 177 176 176 176 175 177 177 178 179 179 178 179 179 179 178 178 177 177 177 177 180 179 181 181 182 182 182 183 183 184 185 186 186 186 186 187 188 187 188 190 189 189 190 191 190 193 194 194 195 195 196 196 196 197 197 198 200
156 156 156 154 154 153 152 153 153 153 153 152 153 154 154 155 157 155 156 157 158 159 160 161 161 162 162 162 163 164 163 163 163 163 164 164 166 166 168 169 169 169 169 169 170 171 171 172 172 173 172 173 174 173 175 176 177 177 179 179 176 175 176 176 176 178 177 176 177 176 176 177 177 177 177 176 179 178 179 179 180 179 179 178 178 179 179 178 179 179 180 180 181 183 182 182 183 183 184 186 186 186 187 187 187 187 188 189 188 189 190 190 190 190 191 193 195 195 196 195 196 196 196 197 199 199 200 199
156 155 155 154 153 151 151 151 151 150 151 151 152 152 152 154 154 154 154 155 157 158 159 159 160 161 162 162 162 162 162 163 162 162 162 163 165 166 167 168 168 168 169 170 169 169 170 171 172 172 172 172 173 172 175 176 176 178 178 178 177 177 177 178 178 180 179 177 179 178 178 179 179 179 179 179 180 180 180 180 181 181 180 180 180 179 180 181 181 181 182 182 183 183 182 182 183 184 184 185 186 186 187 187 186 187 188 188 190 190 191 191 190 191 192 194 195 195 196 196 196 197 198 198 199 200 201 200
156 155 154 154 152 150 151 150 150 150 150 149 148 150 151 152 151 153 152 153 155 155 156 157 157 158 159 160 160 159 160 160 160 160 161 162 162 163 165 166 165 167 168 169 168 169 169 171 171 171 172 172 173 174 175 175 177 178 179 179 178 178 179 179 179 181 181 178 179 180 178 180 180 179 179 180 181 181 181 180 181 181 181 181 181 181 181 183 183 183 184 184 183 184 184 184 183 184 185 186 187 187 187 187 188 188 189 189 190 192 192 192 192 194 195 194 195 195 197 197 196 198 198 198 199 200 201 201
156 155 154 153 152 152 151 150 149 149 149 147 147 148 148 149 149 150 150 150 151 152 153 155 155 155 156 158 158 158 158 159 159 158 158 160 163 163 165 165 166 167 167 167 167 169 169 170 170 170 171 174 172 173 175 176 177 178 178 180 179 179 180 180 179 180 181 180 180 180 180 181 181 181 181 181 181 181 181 181 182 182 183 183 183 183 182 183 183 182 183 184 183 184 185 184 185 186 187 187 187 187 187 188 188 189 189 190 191 191 191 193 195 195 194 194 195 196 199 200 197 198 199 201 204 204 205 209
156 155 154 152 151 151 152 150 149 149 148 146 147 147 147 147 147 148 149 149 150 152 153 153 153 154 156 156 156 157 157 158 157 157 157 158 160 160 162 164 165 165 165 166 167 167 168 169 170 170 171 173 174 174 175 176 177 178 178 179 178 180 180 181 181 180 182 181 181 180 182 182 181 181 181 182 182 183 183 183 184 184 185 184 183 184 185 185 185 184 184 185 184 186 186 185 186 185 186 187 187 187 187 188 189 190 190 192 191 192 194 195 194 195 196 197 198 200 203 202 201 203 205 207 211 212 213 214
156 155 154 154 153 150 151 151 150 149 148 146 146 145 146 146 146 146 147 148 149 149 150 151 151 152 153 154 155 156 156 156 155 155 156 156 156 159 161 162 163 164 164 166 166 168 168 169 169 171 171 171 173 174 175 176 177 178 180 179 178 180 181 182 182 182 182 182 183 182 183 183 184 183 184 183 183 184 184 184 185 185 185 185 185 185 186 186 186 186 185 185 184 186 187 187 187 185 186 186 187 187 186 189 191 191 192 193 192 194 196 200 201 201 203 203 205 207 209 209 208 211 213 213 215 216 216 214
156 156 155 154 154 152 153 151 150 149 148 147 146 145 145 145 146 146 147 146 146 147 149 150 151 151 152 153 154 155 154 154 154 153 153 153 156 157 159 161 162 163 164 165 166 167 168 169 169 170 172 172 173 174 176 177 177 178 179 180 179 181 182 182 182 182 185 184 183 184 184 184 184 184 186 184 183 184 184 185 185 185 186 186 186 185 185 185 187 186 185 186 185 187 186 187 187 188 189 189 189 190 194 196 200 200 199 199 200 201 202 205 206 206 207 209 208 207 207 207 206 207 207 208 207 207 207 207
157 157 156 155 154 153 153 151 149 149 148 147 146 144 144 144 145 144 145 145 145 146 149 149 150 150 151 151 152 154 153 153 153 153 152 152 153 155 157 159 160 162 162 164 165 166 166 168 168 170 170 172 173 173 175 177 177 178 179 181 180 180 182 183 182 182 183 183 184 183 184 184 184 184 186 185 185 185 185 186 186 186 187 187 187 186 186 184 185 186 185 186 186 187 188 189 191 193 195 192 191 190 194 194 196 197 196 196 196 196 197 198 197 198 198 199 199 199 200 200 200 201 203 204 204 205 205 205
157 156 156 154 155 154 153 152 150 149 149 148 147 144 144 145 145 144 144 144 145 145 148 148 149 150 149 151 152 152 152 151 151 150 150 150 151 154 155 156 159 161 162 164 165 166 166 167 167 169 169 171 173 173 175 175 176 178 180 182 181 181 182 182 183 183 183 184 184 184 185 186 185 186 187 186 186 185 185 185 186 188 190 188 187 187 187 186 186 186 185 186 186 187 188 188 189 189 189 189 189 189 189 190 191 193 194 194 193 195 196 197 197 197 198 198 199 199 201 201 201 203 204 204 205 205 206 206
157 155 155 154 153 154 153 152 151 149 148 147 146 144 145 144 144 143 144 143 144 144 145 147 148 148 148 149 149 149 150 150 150 148 148 149 150 151 154 155 158 159 161 164 164 166 166 166 167 167 169 171 172 174 176 176 176 178 180 182 181 182 182 182 183 183 182 184 183 183 184 184 186 187 186 185 186 189 191 195 196 188 183 188 186 186 186 186 186 186 185 186 186 187 187 188 188 188 189 189 189 190 190 192 192 194 195 196 195 196 196 198 197 198 199 199 200 201 202 202 202 204 205 204 205 206 207 207
156 156 154 154 153 153 153 152 150 149 149 148 147 146 144 144 144 143 142 143 143 143 145 145 147 147 148 148 148 148 148 149 148 147 147 147 148 150 152 154 156 158 160 162 164 166 167 167 168 168 168 170 173 173 175 178 179 179 182 182 181 182 183 184 183 183 182 183 185 183 184 184 187 187 189 196 193 184 173 142 119 98 129 194 185 186 186 186 186 185 186 186 186 187 188 188 187 188 188 189 189 189 191 192 193 193 196 196 196 197 197 198 197 198 199 198 201 201 202 203 202 204 206 205 206 207 207 208
156 156 154 153 154 153 153 153 152 150 150 149 148 147 145 144 143 142 142 141 142 143 144 145 146 146 146 147 147 148 147 148 146 145 145 146 147 148 152 154 156 158 160 163 164 166 167 168 168 169 170 171 173 173 176 178 180 182 183 182 182 181 182 183 183 183 184 184 184 184 185 186 187 189 180 134 116 104 89 80 80 77 125 194 185 186 186 186 187 187 186 187 187 189 188 189 189 189 189 189 190 191 193 192 193 194 196 197 197 196 197 198 199 199 198 199 200 201 203 204 203 205 205 205 206 207 207 208
156 156 155 155 154 153 153 153 152 151 151 150 149 148 147 147 144 142 142 142 142 143 144 145 146 145 145 146 146 146 147 146 146 144 144 145 148 148 150 154 156 157 159 163 164 166 168 168 168 170 173 174 176 177 178 180 180 181 182 182 183 182 182 183 183 183 185 185 185 184 185 187 188 193 120 74 81 82 84 83 85 78 129 195 185 186 186 187 187 187 188 188 188 190 190 190 190 189 189 191 191 192 193 194 194 195 197 197 199 197 198 199 200 199 199 200 202 202 204 205 204 205 206 206 207 208 209 209
157 157 155 154 155 155 154 154 151 153 151 151 150 149 147 147 145 142 141 141 141 141 143 144 144 144 145 146 146 146 146 145 146 144 144 145 148 148 149 153 156 158 159 162 165 167 167 169 169 170 173 174 176 178 180 181 181 182 182 183 183 181 182 183 183 183 185 185 186 186 186 187 193 170 89 85 86 84 83 78 82 75 127 195 186 186 187 187 187 187 189 189 188 191 190 190 190 190 191 191 193 193 194 195 196 197 197 198 198 198 199 201 200 200 200 202 203 203 204 206 205 206 206 206 207 208 209 209
157 156 154 154 154 154 155 154 152 152 150 150 150 149 149 147 146 144 142 141 141 141 142 143 144 144 145 145 145 145 146 145 144 144 143 143 146 148 149 152 154 157 159 161 165 167 166 168 169 170 173 174 176 177 179 180 181 183 183 183 183 182 182 183 184 184 185 185 185 185 187 188 193 128 80 85 83 82 81 76 83 76 128 196 186 188 187 187 188 187 188 189 189 191 191 192 191 192 192 192 193 194 195 196 196 197 198 199 199 199 201 201 201 201 201 202 202 202 204 206 206 206 206 207 208 208 209 210
157 156 155 155 154 155 154 154 152 152 152 151 150 150 149 148 147 145 143 142 142 142 141 142 143 142 144 144 145 144 145 144 143 143 143 144 145 148 150 152 154 156 158 162 166 168 167 168 170 171 173 175 177 178 180 182 181 184 184 184 183 184 185 185 184 184 184 185 186 187 187 194 167 91 83 84 81 80 79 77 83 75 130 197 187 187 187 187 188 187 189 190 189 191 190 191 192 192 192 193 193 194 196 197 197 198 198 200 201 201 200 202 202 202 201 202 203 203 206 207 206 206 207 207 208 208 210 210
157 156 155 155 155 155 155 155 153 153 152 151 150 150 149 148 147 146 144 141 140 141 140 141 141 142 143 144 144 144 144 144 143 143 144 145 147 148 150 152 154 156 158 161 165 166 167 168 169 170 172 175 177 178 179 180 182 184 184 185 184 186 185 186 184 184 185 184 185 187 189 192 121 78 83 81 81 79 77 76 80 73 130 197 187 188 188 188 188 186 187 189 189 190 190 190 191 192 192 193 194 195 196 197 198 197 198 200 202 201 202 203 203 202 202 204 205 205 207 207 207 208 207 209 210 210 210 211
158 157 156 156 156 154 155 155 154 153 153 152 150 149 149 148 147 145 146 143 141 141 141 140 140 142 142 143 145 145 144 145 143 143 144 146 147 148 150 151 153 154 157 160 162 165 165 166 169 169 171 173 175 177 179 180 183 184 185 186 185 186 186 187 187 185 186 185 187 186 193 164 87 80 81 80 79 80 76 76 80 70 131 197 185 187 187 187 188 188 188 189 189 190 190 191 190 191 193 193 194 195 196 198 198 198 198 201 201 201 203 203 203 203 203 204 205 204 207 207 207 207 208 208 210 210 210 211
159 158 157 157 157 155 156 156 154 154 155 153 151 150 150 149 148 147 146 144 142 142 142 141 141 142 142 143 145 145 144 144 144 144 145 147 148 149 150 151 151 154 156 159 161 163 164 166 168 169 170 171 173 176 179 179 181 183 184 187 186 186 187 186 186 185 185 185 187 187 190 117 78 81 79 78 77 77 75 74 77 68 131 196 185 187 186 187 188 188 189 190 190 190 189 191 191 191 194 194 194 195 197 197 198 197 198 200 201 202 202 203 202 203 203 203 205 203 205 206 206 208 208 209 210 209 210 212
161 159 158 159 158 157 158 158 157 156 155 154 154 152 151 150 149 148 147 145 144 143 143 142 141 141 142 144 146 146 147 145 145 144 145 148 149 149 151 151 152 154 156 157 159 161 162 164 167 168 171 172 173 176 178 179 182 183 185 186 186 187 186 187 186 186 185 186 185 192 156 81 79 78 78 76 75 76 71 72 76 67 132 196 186 186 186 186 187 188 189 189 189 190 190 191 191 193 194 195 194 195 197 197 198 199 200 200 201 202 202 203 203 204 204 203 205 205 206 207 207 208 208 209 209 209 211 212
161 160 159 159 159 159 159 159 158 159 158 155 153 152 149 150 150 149 148 146 145 144 143 142 141 142 142 145 144 145 147 146 146 145 147 149 150 150 151 151 152 153 155 158 159 160 162 165 167 168 170 172 174 176 178 179 183 184 185 187 186 186 186 188 188 187 186 185 187 187 111 74 77 76 71 71 74 73 71 73 73 64 132 196 185 186 185 186 187 188 189 190 190 191 190 191 193 193 194 195 195 196 198 199 199 200 200 201 201 202 202 204 203 204 204 205 205 204 207 207 208 207 209 209 210 211 211 211
163 162 161 161 159 159 160 159 158 159 158 155 154 152 149 150 149 148 148 146 145 144 144 142 142 141 142 145 145 145 146 146 147 147 147 149 150 151 151 150 151 152 156 158 159 161 162 164 166 168 169 172 175 176 177 180 184 185 185 186 185 185 185 186 187 186 185 184 192 149 76 74 76 75 88 79 69 69 69 70 72 63 133 195 185 187 186 186 187 189 190 190 190 190 190 192 193 194 194 195 196 197 199 200 200 199 200 201 202 202 203 204 204 204 204 205 205 204 207 208 208 208 210 209 210 211 211 211
163 162 163 161 161 160 161 161 160 160 160 157 155 153 151 150 150 149 147 147 145 144 144 143 144 143 144 144 145 145 147 148 148 147 149 151 152 152 151 151 152 153 156 159 161 162 161 164 166 168 170 174 176 178 179 181 183 184 186 186 186 184 185 186 186 185 185 185 182 98 69 75 70 51 96 65 72 69 68 68 71 62 135 195 184 186 186 187 188 188 190 190 189 190 191 192 193 194 195 195 196 198 199 200 201 200 201 202 203 201 203 204 203 204 205 204 205 206 206 208 208 209 209 209 210 211 211 212
164 163 163 163 162 162 162 162 161 161 160 158 155 155 152 151 151 150 149 148 147 146 145 145 145 146 144 144 145 145 147 148 148 149 150 152 153 153 152 151 152 154 156 160 161 161 162 164 165 169 172 175 177 178 180 181 183 184 185 186 185 184 184 186 186 186 185 192 146 73 70 74 51 68 149 81 49 69 65 67 69 60 136 195 183 185 185 187 188 189 190 191 190 190 191 193 195 195 195 196 197 199 199 200 201 201 202 203 201 202 203 204 203 203 205 205 205 205 207 208 208 208 209 210 211 211 211 212
165 163 165 164 164 163 164 164 163 162 161 158 156 154 154 153 153 152 150 150 147 145 145 146 147 146 145 146 147 147 147 149 150 150 152 155 154 154 154 152 153 156 159 160 160 161 162 164 167 170 173 175 177 179 181 182 183 185 185 187 185 183 184 186 185 185 187 180 98 67 70 70 61 65 113 70 44 67 66 66 68 60 136 194 183 185 186 187 187 189 190 191 191 191 192 194 194 195 196 196 198 198 200 202 201 201 203 203 203 202 203 205 204 204 205 205 206 206 208 209 208 208 209 210 211 212 212 212
166 165 166 165 164 164 165 164 163 163 161 159 157 155 154 154 154 152 150 150 148 146 146 147 148 147 147 147 148 150 150 150 151 152 154 155 156 155 154 153 155 158 159 161 161 161 161 164 167 169 174 176 178 179 181 181 183 185 185 187 185 183 185 186 186 185 193 137 67 67 68 67 65 80 88 53 67 62 65 65 67 59 139 195 185 185 187 188 189 190 191 192 191 191 192 194 195 197 197 197 198 199 202 202 202 201 203 204 203 204 204 205 205 205 205 205 205 207 209 209 208 209 210 210 212 213 212 212
166 166 166 166 165 165 166 165 164 163 162 160 157 157 157 156 155 151 151 150 148 146 147 148 149 150 149 149 150 151 151 153 152 154 156 156 156 156 155 155 157 160 161 161 161 161 161 164 168 171 174 175 177 180 181 183 184 186 186 187 186 185 185 187 186 189 180 91 65 67 66 64 65 64 66 65 62 61 63 63 65 56 138 194 183 185 187 187 190 190 191 192 191 192 192 194 196 197 198 198 198 199 201 202 202 202 202 204 204 202 204 205 205 205 205 205 206 208 208 209 209 210 211 211 212 212 212 212
169 169 168 167 167 167 168 167 165 164 163 161 159 159 159 157 155 153 152 150 149 148 148 149 150 151 151 151 152 152 152 154 155 155 156 157 157 157 156 156 158 161 161 161 161 160 160 164 168 172 174 176 179 180 182 184 185 186 186 187 186 185 185 187 185 194 138 70 67 67 66 64 63 64 61 62 61 59 61 62 64 55 139 194 183 186 188 187 188 189 191 192 192 193 194 195 196 197 198 198 199 200 202 202 203 203 202 200 199 205 204 205 204 203 205 205 206 208 209 210 209 210 211 212 213 213 212 213
170 171 170 169 169 168 169 167 165 165 164 161 160 161 160 158 157 155 154 151 149 149 150 150 151 152 152 152 153 155 155 156 156 157 157 159 158 157 157 157 159 161 162 163 161 162 162 165 169 173 174 178 179 180 183 184 186 187 187 187 186 186 187 187 191 177 88 63 63 62 61 62 61 62 62 61 57 56 61 61 63 54 139 194 184 186 188 188 189 191 192 193 193 194 195 196 196 197 198 199 200 200 202 203 202 202 212 210 206 234 232 232 230 225 209 205 208 208 209 210 210 211 211 212 213 212 212 213
170 170 170 171 170 169 170 168 167 166 165 162 162 163 161 160 158 156 154 152 150 151 151 151 152 154 154 154 155 157 157 158 158 158 159 160 160 159 158 158 161 162 164 164 162 164 165 169 171 174 176 179 181 180 182 186 187 188 188 187 187 187 188 187 195 130 67 64 63 61 59 57 55 53 53 54 55 56 53 53 58 52 140 194 184 187 187 189 190 191 192 192 192 195 194 195 196 197 197 199 201 201 203 202 203 206 181 158 161 165 174 195 201 212 207 206 207 208 209 210 210 210 211 211 212 212 213 213
173 172 171 171 171 171 170 170 168 167 166 165 164 163 162 160 159 157 156 154 152 152 153 153 154 156 156 156 156 157 158 158 159 160 160 160 160 159 160 160 161 163 164 164 164 165 167 171 173 175 178 179 182 182 183 185 186 188 188 187 186 186 187 193 172 78 58 55 54 54 57 65 77 88 97 113 122 106 96 85 77 58 140 193 185 187 187 189 190 191 191 192 193 194 195 195 196 196 198 199 200 201 200 205 201 139 82 91 85 89 106 113 127 184 206 204 207 206 208 210 208 210 210 210 211 211 212 214
174 174 173 172 173 171 171 170 170 169 168 167 165 165 162 161 160 157 157 154 154 153 154 155 155 157 157 157 158 158 159 160 161 161 160 160 161 161 161 162 163 164 165 165 166 167 170 172 174 176 179 181 182 185 186 186 185 187 189 191 194 197 197 203 130 74 78 89 101 115 130 136 122 118 135 125 125 127 140 143 144 131 163 190 186 187 188 191 191 190 191 192 192 194 195 195 196 197 198 199 199 198 204 188 139 105 95 97 110 83 93 96 146 208 202 205 206 206 207 208 208 209 210 210 210 211 211 213
176 175 174 173 173 173 172 171 171 170 170 169 167 166 164 163 162 160 158 156 156 156 156 156 157 159 160 159 159 161 161 161 161 161 160 161 162 162 163 162 164 165 167 167 168 170 172 173 175 177 179 181 185 187 189 193 196 198 200 190 178 166 156 152 144 142 139 142 139 125 129 140 89 27 105 107 115 126 134 133 135 134 170 188 185 187 189 190 191 190 190 191 192 194 194 195 195 196 198 197 199 202 168 124 115 99 89 91 102 133 147 129 183 205 202 204 205 206 207 207 207 209 209 210 210 211 212 213
177 176 175 175 175 174 173 172 172 171 170 170 168 167 165 164 164 161 160 158 158 158 159 159 159 161 161 160 161 162 162 162 162 161 163 165 165 165 165 166 167 169 167 166 168 172 174 176 178 180 183 185 180 184 184 181 173 162 152 142 141 141 142 145 145 141 141 136 136 137 128 131 129 80 44 117 117 117 129 129 130 134 169 187 185 187 188 190 190 188 189 190 192 193 193 194 194 196 197 201 196 144 109 93 76 63 64 64 58 80 131 148 205 199 203 203 203 204 205 207 207 208 209 208 209 210 211 212
177 177 176 176 176 176 174 173 173 172 172 171 170 169 167 165 163 163 161 160 158 159 161 161 161 162 162 162 162 161 162 167 165 166 161 155 163 163 157 155 160 160 172 180 184 177 171 172 173 168 164 161 130 144 152 150 150 146 147 148 149 148 143 141 139 137 139 138 137 140 143 140 143 104 18 100 113 109 123 129 134 139 170 188 185 188 189 189 190 189 190 190 190 191 190 192 200 197 190 172 115 82 73 65 65 66 67 67 68 66 54 160 209 199 203 203 203 205 205 207 207 207 208 207 210 210 211 213
179 179 178 177 176 176 175 175 174 174 173 172 172 170 169 166 165 163 161 160 159 160 160 160 161 163 165 166 168 175 167 146 147 122 137 152 108 97 121 125 121 85 145 146 154 150 136 115 95 91 100 109 118 118 122 126 127 120 121 124 122 124 122 121 110 100 108 108 110 109 116 117 124 115 92 97 100 96 109 112 122 135 172 189 188 190 189 190 190 189 189 189 188 193 199 195 167 134 102 75 65 64 64 65 64 63 65 64 65 63 74 187 203 200 202 202 203 204 204 205 206 206 208 206 207 209 211 213
181 180 179 178 177 177 177 175 175 175 174 174 172 171 169 168 166 164 163 162 162 165 174 176 176 173 167 160 147 102 64 56 128 137 155 193 149 128 141 165 166 153 127 124 127 130 140 152 145 114 76 49 41 47 57 64 65 64 62 68 67 69 68 67 55 48 49 52 54 53 55 55 55 52 68 70 52 48 52 56 52 101 192 181 184 184 185 188 186 184 188 194 195 179 148 112 79 66 61 61 63 64 65 64 63 63 64 64 65 58 99 202 197 199 200 201 202 203 204 205 205 205 206 207 208 209 211 212
181 180 178 177 177 176 176 175 174 174 175 174 172 171 170 169 168 164 161 157 160 144 109 87 64 47 33 23 10 1 2 125 193 193 171 189 172 175 199 200 177 198 139 121 123 122 118 121 135 156 153 135 100 64 42 37 41 48 44 47 48 51 54 57 58 63 63 65 66 67 69 68 65 62 62 60 63 61 55 59 45 119 216 200 201 196 196 185 201 209 200 173 126 86 64 59 58 59 61 62 62 63 62 63 62 63 62 63 66 55 139 213 201 203 201 201 202 202 204 204 204 204 205 206 207 208 209 209
181 180 178 177 178 176 175 176 174 175 176 175 173 173 171 167 166 170 180 197 194 97 84 84 96 109 117 126 124 130 120 156 190 174 187 117 127 99 162 191 196 208 191 179 127 103 118 123 116 106 110 125 148 182 179 117 64 36 27 34 37 39 37 33 32 39 41 43 48 52 56 60 62 62 64 71 69 69 69 66 74 186 211 213 219 220 218 192 198 155 107 70 49 44 44 48 51 53 54 57 58 61 61 60 61 62 62 63 65 61 141 176 176 181 191 202 203 202 203 203 203 202 204 206 207 207 208 208
182 181 178 179 179 178 180 180 178 176 177 175 175 173 178 186 204 229 236 238 241 215 161 201 207 200 197 192 190 199 174 152 181 159 122 108 238 106 143 163 179 102 48 61 55 52 61 78 99 111 112 106 91 89 147 213 219 193 150 102 64 48 52 46 40 41 39 35 39 42 42 44 44 43 44 51 52 54 56 62 71 88 95 102 109 114 117 103 85 63 61 53 48 47 44 42 42 42 43 45 47 48 47 46 47 48 54 59 56 66 122 123 126 123 145 201 200 201 201 201 201 202 203 204 205 207 208 207
184 178 170 170 176 179 157 151 171 177 179 178 169 186 201 199 215 231 226 224 232 190 67 154 203 205 206 201 188 191 184 174 182 216 214 114 87 157 227 195 129 78 70 35 39 42 37 35 37 55 82 102 107 94 97 177 197 219 235 234 220 147 64 74 78 80 77 68 53 48 49 50 49 49 47 42 46 45 46 50 154 172 164 156 137 126 102 64 67 73 77 77 76 77 76 74 71 66 59 53 47 42 40 40 41 41 41 57 74 101 130 149 148 150 193 199 199 199 200 201 200 203 203 203 204 206 207 207
183 181 180 179 177 177 170 161 167 171 169 167 139 106 96 99 134 166 165 166 163 165 159 130 124 131 140 148 159 174 182 187 192 190 197 192 196 217 217 215 216 228 228 170 83 64 63 60 54 44 40 49 64 77 81 123 133 138 145 155 177 165 123 124 122 119 116 114 103 85 71 60 58 54 49 49 58 57 39 110 211 208 146 174 202 180 182 164 77 48 55 55 56 65 69 70 74 76 72 71 70 71 67 59 31 28 79 103 126 128 138 149 138 174 201 197 198 199 199 200 200 201 201 202 203 204 206 206
183 181 180 178 176 177 179 178 176 177 176 174 177 160 126 88 78 114 113 115 116 111 116 122 122 122 118 105 101 107 103 104 110 112 112 109 123 122 126 130 132 133 138 160 135 110 113 113 113 109 105 100 89 83 79 121 137 139 140 139 135 134 138 135 134 131 129 129 130 127 122 122 63 81 102 96 112 101 94 172 192 183 114 114 169 107 141 139 142 28 56 57 56 53 50 48 53 62 62 69 68 27 17 16 12 1 34 119 140 119 151 134 148 195 196 197 198 198 199 199 199 200 200 201 203 203 204 206
181 178 177 177 176 175 176 176 174 174 174 173 171 174 178 173 154 147 140 129 139 138 124 118 107 107 111 123 122 122 121 115 104 110 115 115 117 115 115 112 116 116 112 110 115 107 111 118 123 105 103 130 129 132 127 115 123 132 140 142 142 139 136 136 137 137 136 137 135 134 131 132 110 121 131 128 127 121 148 190 187 181 172 153 155 143 122 149 168 62 79 71 73 83 96 102 85 84 80 78 72 14 9 11 20 9 4 65 58 114 133 132 175 197 193 195 195 196 198 198 197 198 199 200 201 202 203 205
179 177 176 176 176 176 175 176 174 174 174 172 172 171 169 169 172 169 168 164 165 202 176 155 135 113 118 124 123 121 120 121 100 108 119 119 121 112 118 119 122 123 125 123 123 128 128 129 129 125 121 127 129 131 133 134 133 136 137 139 138 137 135 137 138 137 138 140 141 137 134 134 138 130 136 138 133 126 133 134 133 142 153 152 156 159 123 147 147 132 132 123 126 137 143 145 124 134 133 122 92 12 15 14 19 9 3 6 24 148 143 162 198 192 194 193 194 193 195 194 194 196 197 198 199 199 201 203
179 177 175 176 177 176 175 174 174 174 175 174 172 172 171 170 169 167 166 167 164 164 164 159 164 166 164 159 155 151 146 142 132 131 130 126 125 122 122 121 118 113 116 122 122 126 126 128 129 131 133 132 133 133 135 135 135 136 130 110 118 121 123 115 103 134 138 138 136 135 136 136 136 135 132 136 135 127 137 137 137 113 90 91 102 105 87 104 108 118 116 119 123 134 135 143 87 129 121 122 98 4 5 8 10 4 0 11 59 177 182 183 189 197 192 193 193 193 193 194 193 194 195 197 197 198 200 202
179 177 177 175 176 175 175 174 174 175 174 173 172 172 171 171 170 168 168 166 166 166 168 169 166 167 166 167 167 168 168 167 168 167 166 166 165 161 158 154 150 146 142 142 136 132 117 113 118 122 105 103 128 130 127 130 130 129 134 135 135 132 133 124 119 133 140 138 137 136 134 134 134 137 128 124 131 130 130 122 125 111 72 63 72 71 70 71 47 13 15 15 23 32 36 44 40 55 89 111 102 34 30 24 28 35 74 127 133 130 140 140 150 179 195 192 193 193 194 196 195 196 197 198 198 201 201 203
178 177 176 175 174 174 175 174 174 174 174 173 173 172 173 171 170 168 167 166 166 166 166 166 166 165 166 165 164 164 165 164 164 164 165 166 166 166 167 168 169 169 171 171 170 169 167 165 162 161 150 126 118 114 112 110 103 101 100 111 130 131 132 136 135 132 135 134 136 136 132 133 134 133 134 128 131 135 131 123 122 128 143 100 90 94 98 103 101 63 65 73 84 91 98 108 114 120 92 92 140 137 135 134 128 131 125 114 135 133 129 147 114 143 199 190 192 192 195 196 195 197 198 197 199 201 202 204
179 177 176 176 176 174 176 175 174 173 175 174 173 171 172 171 170 168 167 166 166 166 166 166 166 165 165 164 164 164 163 165 165 163 164 166 165 165 165 165 165 165 166 167 166 168 168 169 169 169 173 173 157 133 113 103 107 110 101 103 122 126 125 126 125 122 122 123 124 124 124 118 122 123 120 116 121 126 124 119 112 109 115 114 106 112 114 120 127 131 141 144 143 141 139 134 140 136 88 115 113 112 115 116 109 98 93 92 115 115 126 164 153 149 188 191 191 192 194 196 196 197 197 198 200 202 203 203
178 176 176 175 175 174 174 174 174 173 172 171 171 171 171 170 169 168 166 166 165 166 166 166 166 166 164 163 163 163 163 164 164 164 164 165 165 164 165 164 164 166 166 166 166 166 167 167 167 167 167 167 170 172 161 134 102 108 118 119 122 125 126 128 126 126 128 128 129 128 128 125 125 126 125 124 129 130 127 119 119 120 115 111 117 120 123 128 107 116 127 127 126 119 123 124 127 128 119 116 118 115 98 98 104 109 107 112 115 133 161 158 187 189 189 191 192 193 195 196 197 197 199 201 202 202 202 203
177 175 175 175 174 173 173 174 174 173 172 170 170 170 170 170 171 169 168 167 165 166 167 166 166 166 165 164 163 163 163 163 163 163 164 165 165 163 163 164 164 166 165 166 166 166 167 167 168 168 168 168 169 168 171 175 158 119 127 129 128 129 128 128 128 128 131 132 131 130 129 128 130 132 132 131 134 133 130 125 130 131 129 127 131 132 136 139 112 133 138 139 138 136 137 139 137 137 131 124 127 124 29 6 18 20 13 53 154 190 189 186 188 188 188 187 188 190 191 193 194 195 196 197 197 197 199 201
178 177 174 174 175 175 175 175 175 175 175 172 170 171 171 171 171 170 169 167 167 167 166 166 166 166 165 164 164 163 161 163 163 162 163 163 163 162 163 164 164 163 164 164 163 164 165 166 166 166 166 168 168 168 168 167 172 150 137 140 139 137 137 136 134 135 135 135 134 134 133 130 133 134 133 131 126 129 132 127 131 132 129 129 133 134 134 135 109 135 134 135 135 134 140 140 140 141 136 135 136 121 10 0 1 0 5 0 64 130 169 186 184 184 185 185 186 188 190 191 190 193 194 194 195 195 197 199
176 174 173 173 173 173 174 173 173 173 172 170 169 169 168 169 168 168 167 166 166 166 166 166 165 165 164 163 163 162 161 162 162 162 163 162 162 161 161 162 162 162 163 163 163 163 164 165 165 164 165 166 167 166 166 167 167 169 168 166 163 160 155 150 146 140 139 137 135 132 132 140 142 140 138 134 130 133 132 129 134 135 132 134 137 138 137 134 112 139 136 137 136 133 142 142 141 142 140 137 143 111 1 1 2 2 7 8 0 40 177 179 180 180 182 183 185 186 187 189 188 190 191 191 191 193 195 196
175 173 172 171 171 172 172 171 171 171 170 169 169 168 168 168 168 167 166 166 166 166 166 165 165 165 164 163 161 162 162 161 161 162 163 162 161 161 161 162 161 161 163 163 162 162 164 164 165 163 165 165 165 164 165 166 166 166 167 168 170 172 171 171 169 167 166 163 160 156 153 115 112 124 127 130 139 143 136 128 136 138 132 132 135 135 137 135 112 141 137 139 140 134 141 143 131 122 137 141 145 104 0 3 2 3 4 8 0 58 183 177 179 179 182 182 183 185 185 186 186 188 187 186 186 188 192 195
175 174 173 173 172 172 172 172 173 172 171 170 170 169 168 168 168 168 168 166 166 166 166 166 165 167 166 165 163 162 162 162 162 162 162 162 163 163 163 162 161 163 162 162 161 163 162 163 163 162 163 163 163 163 163 163 164 165 166 165 166 166 167 167 166 166 167 167 168 168 172 141 62 53 59 64 73 89 108 121 130 127 129 121 118 116 118 117 110 129 128 129 125 114 125 129 137 115 117 117 138 100 0 2 1 1 3 9 13 104 191 177 177 178 179 179 180 182 183 183 184 185 185 184 186 186 188 191
178 176 174 174 174 174 173 173 173 172 173 173 172 171 170 170 169 169 169 167 167 168 168 167 165 166 166 164 163 162 162 163 161 160 159 159 161 161 161 160 161 161 160 160 160 161 161 161 161 161 161 162 161 162 163 163 164 163 164 163 162 163 163 162 163 163 163 162 163 163 162 174 146 61 52 52 50 46 47 55 67 69 72 80 121 127 126 123 124 120 122 123 112 114 128 123 111 111 105 82 105 92 24 20 20 22 29 42 52 63 109 178 179 180 180 182 184 184 185 186 185 184 184 184 186 187 187 190
175 174 174 173 173 173 172 174 174 173 173 170 171 171 170 170 170 168 168 168 168 169 169 168 167 167 167 165 164 162 161 162 162 161 161 158 159 158 159 159 159 159 161 162 161 160 161 161 162 162 163 163 163 163 163 163 163 163 162 163 162 162 161 161 162 163 164 165 166 165 165 164 172 140 59 53 55 54 52 49 47 44 43 43 79 104 98 129 146 149 153 157 162 163 169 164 119 70 54 60 59 56 59 55 56 53 53 52 49 47 43 148 183 178 180 182 183 183 184 185 184 184 185 185 188 188 189 191
177 176 175 172 172 172 171 170 168 168 167 164 165 166 167 167 167 166 167 167 168 169 169 169 169 170 167 167 166 165 165 167 168 167 167 168 168 166 165 164 164 164 164 163 164 163 163 164 163 162 162 163 162 161 162 163 163 162 162 162 163 161 162 162 161 161 163 164 165 163 166 167 166 176 137 55 53 53 52 51 51 52 48 50 48 52 41 107 181 171 175 175 175 174 173 177 182 163 109 65 57 59 57 55 52 51 50 50 49 52 46 104 185 176 179 180 183 183 184 185 185 185 186 186 187 187 188 190
174 171 169 167 167 167 167 168 169 168 167 166 166 166 165 165 167 167 168 167 168 170 169 170 169 169 169 170 169 171 172 173 174 175 176 175 171 169 169 168 168 168 168 166 164 164 164 163 161 161 161 161 162 162 162 163 162 161 162 162 162 161 161 161 160 159 159 159 159 161 164 166 167 162 173 132 52 55 52 57 56 49 51 48 51 52 49 64 166 172 171 171 172 172 173 174 174 179 182 156 99 62 57 58 54 53 52 50 50 50 50 66 172 182 179 181 183 184 185 185 185 185 186 185 186 188 190 191
174 173 172 171 170 171 172 173 173 173 173 172 173 174 173 174 173 174 175 172 174 174 175 174 173 173 172 174 175 174 172 172 171 171 170 171 169 165 164 165 164 166 166 164 164 164 161 160 159 160 159 160 160 160 160 160 162 160 161 159 158 157 157 158 159 159 158 158 161 164 163 165 163 163 164 177 127 52 53 56 73 47 48 48 49 52 52 45 133 180 173 177 175 175 176 178 179 178 178 186 184 149 90 57 54 56 54 51 51 51 54 49 134 187 179 182 184 184 185 185 184 185 186 186 186 188 188 190
174 174 175 176 176 179 183 183 183 182 182 182 182 183 183 182 181 180 180 180 179 177 177 176 173 174 171 172 171 170 167 165 165 165 166 166 167 164 163 162 162 163 162 160 162 162 161 159 160 160 160 160 160 160 161 162 163 163 163 162 163 162 161 161 162 162 160 159 159 157 157 160 161 159 165 166 178 120 52 39 71 112 39 47 49 49 53 46 89 179 174 178 176 178 178 179 180 180 179 178 179 186 181 137 80 50 52 55 52 52 55 50 90 187 181 183 185 186 187 187 186 187 186 188 189 189 188 190
177 177 178 180 181 181 183 182 181 179 180 179 181 183 187 187 190 193 196 193 185 184 185 182 178 177 172 173 173 172 169 170 170 172 173 172 171 171 168 163 161 159 158 159 160 160 160 161 159 160 159 160 160 160 161 161 161 161 160 161 164 163 160 158 159 157 156 158 160 161 164 166 168 168 168 168 167 178 120 53 48 67 66 50 51 47 52 52 55 158 179 174 176 177 178 179 179 180 179 179 180 180 182 189 177 126 68 49 54 55 56 57 56 157 189 183 187 189 188 188 189 189 189 188 189 189 192 194
179 176 174 175 176 176 178 179 176 174 176 177 179 184 188 191 194 192 192 187 178 175 175 174 172 170 167 167 166 165 165 166 167 169 168 166 164 163 161 160 160 159 159 160 161 161 160 161 161 161 160 159 160 157 157 158 159 163 165 167 165 161 157 158 158 156 160 161 163 165 165 166 167 167 168 169 169 169 181 116 50 58 61 53 53 49 49 53 43 113 184 174 178 179 180 180 180 180 179 180 180 180 181 179 183 190 170 113 65 52 50 48 58 151 194 188 189 189 189 188 188 191 190 189 188 189 190 190
181 179 177 175 173 172 172 174 174 173 171 170 168 169 168 167 167 166 166 166 166 166 164 163 164 164 162 162 161 160 160 161 161 160 161 162 161 160 161 161 161 162 162 162 161 162 162 163 162 160 161 159 160 160 160 163 165 169 165 164 163 159 159 158 159 160 163 163 163 162 163 166 167 167 168 168 169 170 170 180 112 49 54 55 54 53 49 51 49 70 173 176 175 178 179 178 178 179 180 180 181 182 183 183 182 178 186 192 172 139 116 125 171 194 190 190 190 189 189 190 189 190 191 193 192 191 191 192
180 180 178 175 175 174 175 175 176 175 170 173 171 172 174 172 171 168 169 168 168 168 167 166 166 165 164 163 164 164 162 163 162 162 163 163 162 160 158 157 157 157 158 159 163 162 165 167 164 160 160 159 159 159 159 160 161 162 160 159 155 156 157 156 157 160 162 162 163 161 163 166 168 167 168 167 168 170 169 169 180 108 48 57 54 53 51 48 53 46 141 185 176 179 178 180 181 182 181 183 184 184 185 187 189 189 189 190 197 202 203 204 197 192 194 195 196 195 193 193 193 194 193 193 192 192 192 195
181 180 178 178 179 179 180 179 178 175 176 174 175 174 173 173 171 169 171 171 170 170 169 168 166 168 167 166 167 167 165 165 163 162 161 161 162 162 163 163 163 163 165 165 163 162 163 162 163 163 161 159 159 158 157 157 156 157 157 157 158 158 158 159 161 163 163 163 165 164 166 167 167 166 166 168 169 169 170 171 172 180 103 47 56 55 54 50 52 44 96 189 180 184 183 185 188 189 189 189 191 192 193 194 195 195 196 194 192 192 193 196 197 198 199 200 202 203 203 203 199 198 197 195 194 194 195 198
183 181 179 178 180 182 181 180 178 176 177 175 176 176 173 173 171 169 169 169 168 167 167 168 169 168 166 164 164 164 163 163 162 161 160 162 168 169 170 167 163 163 160 161 160 161 162 161 161 160 159 159 159 159 159 162 159 158 157 159 159 160 160 160 160 163 163 162 163 165 166 168 167 168 169 169 170 171 172 175 177 177 183 104 47 58 55 52 49 49 56 168 187 186 188 189 190 190 191 192 192 192 194 195 195 194 195 195 195 195 195 196 197 197 198 199 201 201 201 204 205 206 207 207 207 207 208 209
186 184 181 181 182 182 181 180 179 179 176 176 175 175 174 172 170 170 171 170 168 169 168 167 166 165 164 163 163 163 163 163 163 164 164 163 164 164 163 162 159 159 161 163 161 162 162 162 161 161 162 164 163 162 164 165 164 165 165 163 161 161 162 163 164 162 164 164 167 168 169 170 170 171 172 173 173 174 176 179 183 183 186 190 100 47 55 56 51 51 42 128 196 185 189 187 188 189 191 191 192 193 194 195 196 196 197 198 198 199 199 201 201 202 202 202 204 202 201 204 207 207 210 210 211 212 214 214
186 186 184 182 181 181 181 182 181 181 179 179 176 176 176 173 171 171 170 168 166 166 166 166 164 165 165 164 163 163 165 165 164 164 165 166 164 162 161 161 162 162 163 164 163 163 164 166 165 165 165 167 167 167 168 167 166 165 165 165 168 168 171 172 174 176 177 178 179 181 180 180 182 183 184 183 183 186 186 187 188 189 188 191 192 102 53 48 45 46 43 81 190 187 190 191 191 192 193 193 194 195 195 194 196 198 199 200 200 201 200 203 204 205 207 207 208 208 208 208 208 208 209 208 208 208 209 212
186 185 184 183 184 186 185 185 184 182 181 181 180 177 177 173 171 171 172 172 171 170 169 169 169 168 169 169 169 168 168 168 166 166 166 165 165 163 164 164 166 168 165 167 167 167 170 170 169 169 168 170 171 174 176 178 179 181 184 184 187 187 188 187 183 183 184 185 188 188 187 187 189 190 190 190 190 190 191 190 190 189 190 189 194 197 167 135 106 82 64 49 155 197 190 192 192 193 195 196 197 197 198 198 199 199 199 199 199 199 198 199 201 203 204 205 205 207 210 209 208 209 209 208 207 208 210 211
184 183 184 184 185 185 184 184 180 180 180 177 177 177 177 175 175 174 173 173 174 172 172 175 176 174 175 177 175 172 169 171 171 170 171 168 167 167 167 166 167 168 169 172 170 172 171 171 175 176 177 182 186 188 189 189 188 185 180 184 185 185 185 179 177 185 187 187 190 189 188 188 188 188 189 188 189 189 190 191 190 189 190 192 193 193 200 203 200 192 179 160 170 193 189 190 190 190 191 191 192 192 193 194 197 196 197 197 197 198 199 200 201 202 204 205 206 207 208 208 208 209 210 210 211 212 213 214
183 181 180 179 179 180 180 180 180 180 181 179 180 181 181 180 181 181 180 180 179 176 178 179 176 175 178 178 172 172 171 171 171 171 175 176 175 177 178 178 179 180 186 187 184 184 182 183 183 179 179 176 177 178 183 181 180 181 183 185 185 186 187 189 190 188 189 188 188 187 186 187 186 187 187 187 187 189 188 187 187 186 187 188 189 189 188 187 187 188 190 194 191 187 189 189 188 187 188 188 190 190 192 192 193 193 195 196 195 196 197 199 200 201 202 202 205 206 206 205 205 206 208 207 210 212 213 215
187 186 183 184 185 185 185 185 185 185 184 184 186 185 181 181 180 180 186 186 187 189 191 185 182 181 178 180 180 178 177 178 177 174 175 177 179 179 181 179 178 180 180 178 179 183 182 184 183 183 185 184 186 188 189 189 188 188 188 187 186 186 187 188 186 185 185 185 186 185 184 185 185 185 185 185 185 186 187 186 185 186 185 185 186 187 188 190 189 188 187 185 186 188 188 188 189 188 189 190 191 192 192 193 193 195 196 196 194 195 196 198 199 200 201 201 204 204 203 203 202 204 205 204 207 208 209 212
188 191 189 187 188 188 190 190 192 196 194 193 194 195 195 195 195 198 199 198 197 194 188 187 183 181 180 180 183 185 181 179 181 180 183 185 185 186 188 188 186 188 189 191 192 193 191 191 189 188 188 188 188 186 188 188 188 187 187 187 186 185 186 187 185 185 186 184 185 185 184 186 188 185 184 185 186 186 187 187 186 186 187 187 188 188 188 188 188 186 186 185 186 187 187 189 190 188 190 191 193 194 194 194 194 194 196 196 196 197 197 198 199 201 201 200 202 203 204 204 203 204 205 205 207 208 210 211
202 202 200 200 202 204 207 208 208 209 209 209 206 202 200 192 190 191 188 183 181 180 179 182 184 185 187 188 191 193 194 195 195 196 196 197 196 195 195 193 191 191 191 191 192 192 191 189 189 187 187 188 188 188 189 189 189 189 188 187 188 187 187 188 186 186 186 185 185 185 186 186 186 185 185 185 187 186 187 189 188 187 189 189 189 189 189 188 188 187 185 186 188 189 189 189 190 190 192 194 194 194 196 197 195 195 195 196 197 198 198 199 199 200 201 201 202 202 203 202 200 203 205 204 206 207 209 209
217 216 214 210 210 206 203 196 194 191 187 186 186 184 183 185 187 189 194 198 199 201 200 202 201 202 201 200 199 199 199 199 198 196 196 196 197 196 195 193 191 191 190 192 192 192 191 189 188 187 186 187 188 189 188 189 190 189 187 188 186 186 187 188 186 186 187 186 186 186 185 186 188 187 187 187 188 188 188 189 190 189 189 189 188 188 188 189 189 188 186 186 188 188 189 190 191 192 194 194 194 195 196 197 197 196 196 198 197 198 198 199 200 200 201 202 203 202 203 204 203 205 206 206 207 208 209 210
201 195 190 186 185 188 191 191 192 196 198 202 203 203 204 203 204 203 204 205 204 204 204 202 201 202 199 199 199 199 198 199 199 198 199 199 199 199 198 197 195 194 194 194 193 192 191 191 190 190 189 189 189 189 191 192 190 190 190 189 187 188 187 188 187 185 185 185 184 183 183 185 186 185 184 186 188 188 188 187 188 187 187 187 187 186 186 186 187 187 187 187 187 188 188 191 193 194 196 197 198 198 198 198 199 199 199 198 197 198 199 200 201 201 201 200 202 201 201 203 204 205 206 206 208 208 209 210
194 197 198 200 204 207 210 210 208 209 208 208 208 206 205 203 203 203 204 203 203 203 204 204 203 204 201 202 201 201 200 201 201 201 201 200 201 199 198 197 197 196 195 195 195 195 194 193 193 192 192 192 192 191 193 193 193 192 191 191 190 190 189 190 189 188 187 187 187 187 187 190 191 190 188 188 189 188 188 188 189 188 189 188 189 189 189 189 190 191 192 194 194 195 195 196 198 199 199 200 201 201 201 202 202 201 201 201 201 201 201 202 202 202 202 203 203 202 204 207 207 208 210 210 211 212 212 214
211 211 210 210 208 209 210 208 207 205 205 204 206 205 203 204 202 203 204 204 205 204 205 204 204 204 203 202 201 201 200 199 198 198 198 197 197 197 198 197 196 197 198 197 197 197 195 195 194 193 192 191 191 190 192 193 192 192 191 191 190 189 188 189 190 189 190 189 190 190 191 192 193 192 190 191 191 191 192 191 192 192 192 193 192 192 193 192 194 193 195 196 195 197 198 200 201 202 201 201 202 202 202 201 201 200 201 202 200 200 201 203 203 203 204 204 205 205 207 210 210 211 212 213 215 214 216 217
207 211 211 211 211 210 211 209 208 208 208 207 207 207 205 206 205 206 205 205 205 204 204 202 202 202 201 199 199 196 194 196 196 196 196 194 194 193 191 192 193 193 193 194 193 192 191 192 191 190 190 190 189 189 191 191 191 192 193 192 192 192 191 192 191 192 192 191 192 191 191 192 192 193 193 194 193 193 193 192 193 194 194 194 194 195 195 196 196 196 195 197 197 198 198 199 200 201 202 203 203 204 204 203 203 203 204 204 203 203 204 206 206 205 207 208 210 210 211 213 212 213 213 214 215 216 217 218
195 197 201 207 208 209 209 208 209 210 210 209 208 206 204 204 204 204 205 205 205 205 205 205 205 205 203 202 200 201 200 202 201 199 200 199 199 198 196 197 197 196 195 195 194 193 194 194 194 193 192 193 192 192 193 194 193 194 194 194 192 192 192 192 192 192 191 192 192 192 192 193 193 192 193 193 193 193 193 193 194 195 196 196 197 196 197 198 197 198 198 198 198 199 200 201 201 202 204 204 203 205 205 205 205 203 204 204 204 204 205 205 205 207 207 210 212 212 213 213 213 213 214 214 216 217 217 219
197 194 195 202 198 196 197 200 204 206 209 210 212 210 209 208 206 205 207 208 207 206 206 206 205 205 203 203 201 202 201 202 202 202 202 201 201 201 199 199 199 198 197 197 197 197 197 198 198 196 196 195 195 195 195 196 195 196 195 194 193 194 194 194 193 193 194 194 194 193 192 193 194 192 192 193 193 193 194 194 195 195 195 196 197 196 197 198 198 199 199 200 200 201 201 201 202 203 204 205 204 205 207 206 206 204 203 202 205 205 206 207 207 208 209 210 211 212 213 213 213 212 213 214 216 216 218 219
193 192 191 193 192 195 194 188 191 193 195 196 201 205 207 206 206 210 210 208 208 207 207 206 204 204 202 202 204 204 204 205 205 203 203 203 203 201 201 200 199 198 198 198 198 198 199 200 199 198 197 196 196 195 196 197 197 196 196 195 194 195 194 194 193 193 193 193 194 193 193 194 195 196 196 198 198 198 197 198 198 198 199 199 199 199 199 199 199 198 198 199 201 201 201 201 201 203 203 204 203 204 207 206 205 205 204 203 202 203 206 206 206 208 209 210 211 211 212 213 213 213 214 215 217 218 218 220
197 198 195 192 190 191 191 189 189 190 191 189 186 188 191 195 199 205 206 208 208 208 208 207 208 209 205 206 208 209 208 209 209 208 208 207 207 207 206 205 204 202 201 200 199 199 198 199 198 197 197 197 196 196 197 198 198 198 196 196 195 195 195 195 194 194 195 195 196 196 195 197 198 198 198 199 199 199 200 201 202 201 201 202 202 202 202 202 201 202 201 201 202 202 203 202 203 204 204 204 203 204 204 205 205 205 205 204 203 205 207 207 209 210 211 212 212 214 213 215 214 214 215 216 218 220 220 221
196 195 194 193 192 190 191 191 189 189 189 187 188 189 188 189 187 186 189 198 209 208 210 210 209 210 208 210 212 213 213 213 213 213 213 211 212 211 211 211 210 208 204 201 201 201 199 198 197 197 197 197 197 197 199 199 199 200 200 199 198 196 197 197 196 197 197 197 197 196 197 198 199 199 199 200 200 200 200 201 203 203 202 202 202 202 203 204 204 204 205 205 205 205 205 205 205 205 205 206 207 207 206 206 207 208 208 208 208 208 208 209 212 213 213 214 215 217 217 217 216 217 218 217 219 220 221 222
196 196 196 196 196 193 194 194 192 191 191 190 188 187 188 186 186 185 186 191 204 208 209 212 212 213 212 214 216 217 218 219 218 217 216 214 215 215 215 214 214 208 202 200 200 199 199 198 197 197 196 197 197 197 199 200 200 201 202 201 199 198 198 197 197 197 197 197 198 199 200 200 200 201 201 201 200 200 201 201 202 203 204 203 204 205 205 205 206 206 206 207 207 206 206 206 206 205 206 207 207 207 208 207 208 209 208 208 209 210 210 209 211 209 212 215 216 216 217 218 218 218 220 220 221 222 223 224
195 194 195 194 193 193 194 193 191 190 190 188 187 187 187 185 184 185 185 183 184 184 185 190 196 197 194 195 196 196 200 203 204 206 207 207 208 207 209 212 208 201 200 201 199 199 199 200 200 200 200 200 201 201 202 202 202 204 205 203 201 201 202 201 200 200 201 201 200 201 200 201 201 201 201 201 201 202 200 201 202 203 204 203 204 204 204 203 204 204 206 207 205 205 206 206 206 206 207 207 207 207 207 207 207 207 208 208 209 209 210 211 211 208 211 213 216 217 216 216 215 217 218 219 221 221 222 223
198 197 194 194 195 193 195 195 193 193 189 188 189 188 188 187 186 187 188 186 186 187 187 186 185 185 182 182 181 179 179 181 181 179 178 180 182 182 185 188 190 186 183 183 181 182 182 185 187 189 190 193 195 194 193 195 198 201 202 200 201 201 194 201 204 204 205 202 202 202 202 202 201 201 202 203 204 202 201 202 204 204 205 206 205 205 206 206 206 204 204 205 205 206 207 207 207 207 209 209 209 209 209 208 208 208 209 211 211 212 213 214 214 212 213 214 213 212 214 215 214 215 216 217 218 220 222 222
199 197 193 192 191 190 192 190 190 189 188 188 188 186 188 189 191 191 190 190 189 190 189 188 188 188 183 181 182 184 184 182 182 181 179 179 178 178 178 179 180 179 179 178 178 180 180 175 175 176 178 178 178 177 176 178 179 181 180 180 188 195 176 193 198 193 191 171 177 186 189 194 193 190 185 178 179 184 189 194 194 194 196 199 199 201 202 203 202 204 205 205 207 208 208 209 209 209 209 209 210 209 210 209 210 210 210 211 211 212 213 216 216 216 217 217 217 215 215 215 215 216 216 219 220 220 222 225
197 193 191 190 190 189 189 190 190 189 186 184 184 186 188 187 187 185 186 186 186 186 187 187 187 186 184 183 183 183 182 182 181 179 180 181 182 182 182 180 179 178 178 178 178 179 179 178 179 178 179 179 178 178 178 181 183 185 185 185 185 188 187 187 188 187 184 183 185 185 182 183 182 180 178 174 174 178 178 181 183 180 180 174 168 165 164 167 180 184 185 189 191 194 201 200 198 199 203 202 202 202 205 206 207 206 205 204 202 203 204 206 203 200 204 203 207 210 211 214 211 213 213 207 207 210 207 212
197 194 192 191 191 189 189 191 189 189 188 185 185 184 186 186 185 182 184 184 186 186 187 188 186 184 184 184 184 183 181 181 182 182 182 182 183 181 181 182 180 179 179 180 179 179 176 177 175 174 175 177 177 177 178 178 181 182 183 183 184 184 185 185 184 183 183 183 183 182 180 178 176 175 176 177 177 176 175 176 175 176 179 171 173 164 161 166 171 179 179 177 181 187 181 173 177 179 183 184 182 180 182 181 186 189 190 189 186 187 189 190 189 186 186 191 198 201 206 206 200 197 197 198 198 199 201 204
194 191 189 188 188 191 193 195 194 194 193 192 192 190 190 190 190 187 187 188 186 186 185 187 186 184 184 183 184 183 180 181 181 179 178 179 177 178 178 178 179 178 176 175 175 177 176 175 176 175 175 176 176 176 177 178 180 179 180 180 181 179 180 181 181 182 180 179 178 177 176 176 176 177 178 177 176 175 175 175 177 176 177 177 179 181 182 184 181 177 182 179 182 182 178 181 183 183 184 188 189 188 188 190 190 180 184 187 187 190 192 196 193 185 180 187 201 206 202 194 197 202 200 205 201 202 202 204
