P2
6 7
15
0 10  10  10  10  0
0 10  10  10  10  0
0 10  10  0  0  0
0 10  10  10  0  0
0 10  10  10  0  0
0 10  10  0  0  0
0 10  10  0  0  0
